<?xml version="1.0" encoding="UTF-8"?>
<svg id="Layer_2" data-name="Layer 2" xmlns="http://www.w3.org/2000/svg" viewBox="0 0 318.16 161.42">
  <defs>
    <style>
      .cls-1 {
        font-family: 'Inter_748.000wght', Inter;
        font-size: 12.17px;
        font-variation-settings: 'wght' 748, 'slnt' 0;
        letter-spacing: .28em;
      }

      .cls-1, .cls-2 {
        fill: #fff;
      }
    </style>
  </defs>
  <g id="Layer_1-2" data-name="Layer 1">
    <g>
      <g>
        <path class="cls-2" d="M100.37,103.19c-.25-1.52-1.56-3.98-1.5-5.49.08-2.03.15-4-.31-5.98-.2-.85-.4-1.67-.43-2.55-.03-.87-.12-1.77-.04-2.64.2-2.29.17-4.46-.08-6.75-.02-.2.1-.58.06-.8l-.74-3.81c-.23-1.19-.33-2.35-.14-3.54l1.92-.96.04-.2-.18-.14c-1.04-.81-1.76-2.16-2.24-3.38l-1.09-2.8-.06-.15.19.02.21.03.22.03c.06,0,.14.01.21.01.23,0,.47-.05.57-.16-1.19-1.21-1.18-1.07-1.5-2.67.41-.57.84-1.15,1.31-1.73l.81-1c.5-.62-.63-.01-1.6-.87-.63-.56-1.11-1.2-1.46-1.96-.74-1.63-1.35-3.26-1.73-5.02l-1.04-4.89c-.22-1.04-.1-2.09-.19-3.14-.12-1.32-.43-2.55-.68-3.85l-1.09-5.73c-.76-4.02-2.93-7.8-5.5-10.92-.54-.66-1.1-1.26-1.6-1.95l-3.09-4.24c-1.63-2.24-3.6-4.04-6.09-5.29-1.52-.76-2.92-1.59-4.39-2.45-1.42-.84-2.74-1.7-4.09-2.63l-2.38-1.63c-2.15-1.48-4.56-2.29-7.18-2.57-1.95-.21-3.8-.52-5.69-.98-1.07-.26-2.11-.38-3.15-.38-2.51,0-4.93.71-7.27,1.84-1.98.96-3.65.93-5.43,2.19-1.24.88-2.25,1.62-3.31,2.72-1.07,1.1-2.24,1.96-3.71,2.51-1.83.68-3.49,1.58-4.91,2.94-1.48,1.42-1.42,1.89-3.61,2.57-1.99.62-3.82,1.59-5.25,3.13-1.72,1.86-3.11,3.91-4.27,6.17-.71,1.39-1.12,2.84-1.63,4.3-.63,1.83-2.58,3.68-3.79,8.04-.38,1.38-.5,2.74-.79,4.14l-.89,4.42c-.23,1.15-.35,2.26-.38,3.44-.11,3.99.07,3.67-.95,7.67-1.03,4.02-.32,5.98,2.03,9.26-.52.07-1.06.17-1.29.52-.06.92.08,1.8.15,2.67.08.86.42,1.39,1.26,1.71.42.16,1.19.47,1.4.91.54,1.11.91,2.26,1.07,3.48.17,1.35-.6,4.35-.96,5.82-.38,1.54-.55,3.06-.68,4.65-.01.15.02.21.09.21.21,0,.75-.58,1.24-.58.01,0,.03,0,.04,0-.17,1.72-1.01,2.58-1.23,4.61-.11.99-.22,2.02-.12,3,.2,1.81.47,3.54.4,5.38-.05,1.36-.04,2.65.19,3.98.25,1.51.41,2.97.33,4.52-.02.35.18.63.24.94.22,1.01-.3,2.16-.95,2.93-.39.47-.88.55-1.51.87l.78.97c.04.05.12.22.15.28.02.05-.05.09-.16.09-.25,0-.73-.15-1.09-.59-.67-.82-1.05-1.69-1.54-2.71-.77,3.17.28,6.4,2.66,8.38.19.16.29.45.18.7-.78,1.75-1.27,3.65-.98,5.55l.38,2.47c.18,1.14,1.36,3.81,1.66,3.81.02,0,.03-.01.05-.03l.09-.18c.35.42.57.93.79,1.5.63,1.63,1.27,3.19,2.04,4.77t0,0h0s0,0,0,0h0s0,0,0,0c.04.08.11.17.2.27.02.03.05.05.07.07.02.02.04.04.06.06.04.05.08.09.12.13h0s0,0,0,0h0s0,0,0,0l.53-1.1c.35.28.45,1.24.47,2.11,1.43,1.61,3.82,4.91,2.92,8.38,0,0,2.95,3.3,6.95,4.89,4,1.59,14.77,6.08,15.8,7.4,1.03,1.32,10.43,3.25,10.43,3.25,0,0,2.1-7.9,6.97-10.23,0,0,2.37-1.35,8.1-5.63,5.12-3.82,10.05-6.27,12.36-6.63,1.67-.26,10.95-6.69,10.41-10.24-.54-3.55,4.69-4.98,5.45-5.24.76-.26,2.04-8.17,5-10.88l-.26-.16s.17-.13.22-.15c.87-.24,1.77-.66,2.52-1.18,2.06-1.16,2.68-2.68,3.6-4.85.25,1.39-.35,2.61-.76,3.93,1.21-.7,1.97-1.86,2.07-3.2.1-1.25.19-2.52-.01-3.76ZM46.65,1.47c.94,0,1.88.11,2.8.34.05.01.09.02.14.03-1.13.03-2.21.28-3.34.54-2.68.95-3.79,2.25-5.44,4.46.34-1.99,1.38-3.65,2.84-4.91l.13-.12c.98-.22,1.93-.34,2.87-.34h0ZM4.82,111.04c.84-.99,1.61-2.61,1.26-4.2-.05-.22-.12-.4-.17-.53-.01-.03-.03-.06-.04-.1.05-1.04,0-2.1-.14-3.3.25.78.48,1.56.71,2.45.02-.01.11-.05.15-.07l.14-.21c.56,1.13.07,3.3-.39,4.65-.27.8-.78,1.36-1.49,1.86.89.23,1.47-.28,2.36-.54-.39,1.12-1.58,1.75-2.76,1.8.17-.38.19-.82.01-1.22-.02-.04-.04-.09-.07-.16.15-.12.29-.26.43-.42ZM2.94,113.76c.58,0,1.08-.25,1.38-.69.84.37,1.72.22,2.69.29-.97.83-2.3,1.12-3.49.94-.38-.06-.83-.29-1.18-.38l-.12.14c-.08-.16-.16-.32-.23-.49.34.13.67.19.95.19ZM13.13,145.4c.5-3.5-1.53-6.65-3.06-8.48-.08-1.39-.4-2.21-1.01-2.7l-1.44-1.13-.06.12c-.35-.81-.68-1.65-1.04-2.57-.25-.64-.53-1.31-1.03-1.91l-.83-1c-.29-.67-.57-1.45-.64-1.89l-.38-2.47c-.22-1.39.07-2.93.87-4.72.37-.83.13-1.83-.58-2.42-.68-.56-1.21-1.25-1.61-2,1.21,1.41,2.26,1.93,4.15,1.97-.34.7-.73,1.15-1.17,1.73-.64.84-1.82,3.49-1.39,3.14l.09-.07s.1-.09.12-.12l.6-.72c.14-.17,1.81-1.58,1.61-1.02-1.39,2.24-2.52,5.18-1.83,8.01l.3-1.6c.12-.65.35-1.29.76-1.88.04,1.47.06,2.78.44,4.12.44,1.51.93,2.94,1.42,4.42l.05.15.09.26s.13-.01.14-.05c.01-.04.05-.18.06-.22l.49-3.1c.09-.6.22-1.18.63-1.68-.02,2.45.25,4.76.98,7.06.91,2.85,2.79,3.54,3.33,7.06.16,1.08.13,2.12.2,3.23.43-.48.91-3.78,1.05-3.47.42.94.44,2.88,1.74,4.97l.17.28s.1-.11.1-.19l.15-2.87s0-.11.01-.17l.02-.2s.08-.06.16-.11l1.51,3.92.39.96c.05.06.14.15.15.09.01-.06.05-.25.05-.3l-.11-2.61c0-.24.07-3.91.56-2.96l.27,1.92c.14,1.01.31,1.94.83,2.93.09-.18.18-.43.23-.66l.08-.36c.01-.05.07-.2.09-.24.01-.03.09.04.13.07,1.26,2.98,1.95,3.87,4.35,5.92.16.13.33.26.5.38-2.99-1.29-5.76-2.4-6.79-2.81-2.71-1.08-4.95-3.06-5.9-3.99ZM25.28,115.18l.75,1.96c.32.82.41,1.67.43,2.6.75-.49,1.43-.94,2.24-1.31.06.5-.14.91-.45,1.29l-2.06,2.54c-.47.58-.92,1.11-1.52,1.58.53-1.55.85-3.48.14-4.62-.26,1.04-.53,1.91-1.27,2.71l-.03-3.96c0-.77.46-1.37.36-2.23l-1.17,1.67c-.2-1.16,1.21-5.29,2.35-5.7-.24,1.26-.2,2.33.23,3.46ZM48.4,113.23l1.34.73c-1.55.98-1.21.69-2.56.39-2.45-.55-2.77-1.63-4.6-3.04l.92,3.53c-1.23-.58-1.76-2.42-2.58-2.76v1.04c0,1.07-.27,2.1-.55,3.17-.19-.06-.27-.26-.26-.44.05-1.33-.31-2.47-.92-3.6-.14-.26-.3-.49-.62-.52-.13,1.82-.81,3.43-2.12,4.68-.24.23-.49.38-.89.54l.73-1.6c.52-1.14.91-2.34.66-3.7-1.11,1.27-2.45,2.09-4.02,2.19.74-.62,1.29-1.22,1.81-2.01-.29.06-.48.15-.71.27l-2.52,1.36c-.47.25-.95.7-1.25,1.14l-.86,1.28.26-1.89c.05-.36-.81-.39-1.13-.31l-1.03.28c.66-1.14,1.24-2.08,1.56-3.31-.93-.23-1.33.51-2.08.59.55-.93,1.24-1.62,2.17-2.02,1.1-.47,1.46.45,2.38.84,1.23.53,2.58.42,3.84.02.65-.21,1.24-.18,1.91-.22l4-.25,4.92-.43c.7-.06,1.26.17,1.68.71.94,1.2,2.03.41,3.25-.08-.22,1.46-1.32,2.54-2.64,3.02-.06.02-.22.14-.28.17-.05.03.13.22.2.25ZM97.72,105.65l-.05.12c-.85,2.01-1.32,3.12-2.91,4.02l-.06.03-.06.04c-.6.42-1.35.77-2.08.97-.19.05-1.16.38-1.28,1.37v.07c-1.74,2.13-2.79,5.51-3.59,8.05-.21.66-.45,1.45-.62,1.88-5.48,1.85-6.28,4.66-5.96,6.7.08.52-.6,2.21-3.74,4.9-2.46,2.11-4.9,3.53-5.43,3.66-2.84.43-8.07,3.21-13.02,6.9-5.18,3.87-7.6,5.33-7.91,5.51-4.13,2.02-6.4,7.31-7.28,9.82-3.68-.81-7.58-1.92-8.31-2.5-.87-1-4.65-2.83-8.4-4.49-.24-.61-1.27-2.21-.93-2.63l1.54,1.44c1.46,1.36,3.03,2.53,4.76,3.52.02-.07.06-.23.06-.26l-.12-.73,2.06,1.88c.51.47.96,1,1.55,1.37l-1.56-3.43c-.04-.09-.06-.31-.06-.38,0-.05.18.04.22.1.77.99,1.78,1.95,2.8,2.75,1.08.84,2.26,1.4,3.49,1.98.06.03.2.07.19.03l-.04-.15c.03.17-1.44-2.69-1.29-3.6l1.74,1.94c.31.35.65.7,1.01,1l.77.63c.87-2.47,1.4-4.44,3.03-6.47,1.38-1.72,2.86-2.12,4.69-5.05.03-.04.09-.19.11-.23.02-.04-.14-.01-.18.01l-2.23,1.59-.13.09c-.14.1-.05.06-.31.18.18-1.34,1.45-2.58,2.64-3.45,2.01-1.46,3.2-2.31,4.4-4.56.84-1.58,1.56-4.39,2.76-4.72l-.49,3.25c-.01.06.02.21.02.24,0,.03.16-.09.19-.13.66-1.01,1.26-2.41,1.66-3.65.04-.12.27-.32.35-.26.08.06.2.24.22.36.56,3-1.49,4.29-3.06,6.31-.03.03.11.01.16,0,.41-.14,1.53-1.1,1.96-1.52.77-.74,1.49-1.48,2.06-2.38.57-.9-.17,2.02-.19,1.96-.02.2-.02.28,0,.12.68-.62,1.56-2.38,1.75-3.06l.06-.23c.02-.07.05-.19.05-.22l.21-2.13c1.76.76,1.41,3.79.97,5.29-.01.04-.03.12-.04.16l-.04.21s.04.04.07.02c.03-.02.12-.1.14-.14.65-.98.99-2.26,1.03-3.45.08-1.97-1.08-2.79-.84-2.96l.4-.27c2.12-1.45,3.39-3.04,3.71-5.65,0-.08.24-.29.27-.22.35.83.17,1.96.14,2.95,0,0,.09-.07.16-.12l.42-.81.48-.97c.35-.71.33-1.65.45-1.47,1.51,2.28-.47,5,.32,4.29,1.49-1.34,1.22-3.9.43-5.59-.23-.5-.31-1-.24-1.56l.19-1.57.02-.14s.16.09.18.13l.95,1.9.72,1.65c.1-1.23.05-2.35-.19-3.47-.2-.91-.21-1.74-.19-2.67l.03-1.7c.74.86.34,2.06.57,3.04.27,1.16.66,2.24,1.09,3.33,1.09,2.76.99,5.79-1.7,7.58-1.04.69-2.35,1.15-3.58,1.34-.09.01-.27.27-.19.28,1.95.32,3.88-.37,5.67-1.15.03,0,.15.03.13.06l-.07.16c-.06.15-.51.62-.64.72l-1.54,1.13c-1.09.8,1.81-.21,2.65-.77,1.83-1.21,3.74-3.65,4.07-5.91.04-.05.1-.12.12-.1.02.03.15.16.16.19l.42,1.28c.49-1.34.19-2.43.1-3.9-.12-2.01,1-2.93,1.66-4.95.02-.05.18,0,.2.04l.32.86c.33.88.89,1.77,1.68,2.19-.26-.84-1.07-1.48-.86-2.31.59-1.8,2.37-2.36,3.04-4.21.46-1.27.68-2.57.88-3.93.13-.87.72,1.36.66,2.46l-.17,3.22c.49-1.18.78-2.41.92-3.71l.29-2.81c.08-.73.05-1.41-.03-2.13-.01-.04-.04-.17-.05-.2,0,.03.25.04.27.07l1.02,1.69c.2-1.26.38-2.57.15-3.8l-.48-2.52.18.02.42.56c.47.62.71,1.21,1.36,2-.21-1.11-1.35-3.75-1.72-5.02-.54-1.87-.77-3.75-1.04-5.68,0-.07,0-.25.05-.23l.2.08.28.11.21-.91s.15-.18.2-.22c.04-.04.11.11.16.17l.17.19s.02-.13,0-.16l-.45-1.28.25-.02-.85-2.52c-.6-1.78-.85-3.55-1.15-5.41-.24-1.5-.64-2.91-.99-4.37-.21-.87-.61-1.64-.93-2.46-.67-1.73-1.55-3.08-3.09-4.2l1.27,2.97c.4.93.64,1.9.89,2.96-.92-.98-1.35-2.11-2.43-2.92.37,1.26.89,2.33,1.39,3.47l.54,1.23c0,.17-.03.3-.11.1l-.94-.93-.8-.78-.09.15.46,2.37c.23,1.19.4,2.38.16,3.63-.54-1.06-.51-2.23-1.31-3.1l.26,1.71c0,.07-.05.25-.07.3-.08.25-1.08-2.14-1.4-2.39-.16.87-.23,1.72-.19,2.6.1,2.3,1.22,3.98.79,6.27l-.58-1.29c-.48-1.06-1.73-2.89-2.82-3.44-.18.02-.32.04-.19.08l.43,1.62c.28,1.06.56,2.01.6,3.16l-.17.12c-.31-.91-.58-1.69-1.3-2.38.25,1.59-.05,2.72.24,3.98l.82,3.52c.12.5.16.97-.04,1.48l-1.5-3.37c-.56-1.26-1.07-2.45-1.96-3.58-.02-.28-.07-.11-.11.09.41,1.31.9,2.51,1.09,3.93l-1.99-2.39-.08.19c.88,1.94,1.4,3.91,1.66,6,.08.6.18,1.11,0,1.69l-.93-1.44c-.31-.49-.7-.92-1.11-1.36l.2,3.51c.02.37-.13,4.35-.54,3.28-.44-1.15-1.26-2.2-1.99-3.2-.64-.86-1.31-3.02-2.36-3.76,0,1.06.2,1.97-.16,3.02l-.38-.67c-.71-1.28-1.35-2.51-1.96-3.83-.55-1.2-1.26-2.29-1.95-3.43-.7-1.15-3.38-2.48-4.64-3.12-.83-.43-1.51-.92-2.08-1.67-2.02-2.69-2.47-3.81-5.42-5.61-.6-.37-1.61-.34-1.93.33-.75,1.53-1.6,2.99-3.11,3.85-.73.42-1.66.22-2.44.2.63.74,1.95,2.12,2.18,3.07-.79-.68-1.45-1.21-2.32-1.62l-2.01-.95s-.21-.08-.19-.05c.01.03.06.21.08.24l.44.66c.46.69.85,1.27,1.14,2.16l-2.94-1.91c-.15.52-.07.78-.03,1.38l-1.07-1.03c-.11.93,0,2.39.36,3.37-.09.04-.41,0-.5-.08l-1.12-1.12c.14,1.2,1.9,2.93,3.1,3.06l-.37-1.19,2.21,1.77.34-.91.2,1.14.32-1.16.28,1.05.38.16c.54-.33.39-1.82.78-1.49.64.56.22,1.02.79,1.2l.19-1.39.37.49c.11-.9-.46-1.57-.86-2.47,1.29.74,2.19,1.81,2.81,3.12.16.35.25.7.65.81l.07-1.33c.44.52.26,1.16.71,1.65l.33-1.06.79,1.47c.49-.43.56-.91.43-1.47l-.55-2.45c.22.22.34.36.64.57l-.82-2.29c1.07.45,2.29,2.51,2.96,3.1.02.02.02-.1.02-.14l-.84-2.54c.99.54,1.49,1.34,2.14,2.1l1.2,1.4.88,1.04c-.11-1.23-.67-2.13-1.07-3.28,1.11.9,1.49,2.15,2.05,3.49.18-.51.09-1.02.06-1.55l-.06-.96c0-.06.01-.19.03-.24.01-.06.22-.08.23-.02.01.06.02.29.06.33,1.68,2.09,2.04,1.56,2.79,2.56.78,1.03,1.02,2.39.75,3.66-.19.91-.06,1.64.4,2.5-.44.14-1.93-1.58-2.16-1.93.29,2.31,1.94,2.94,3.79,4.08.42.26.74.54,1,1.02l-1.85-.53c-.1.03-.12.05-.06.09.58.54,1.11.97,1.52,1.58.31.47.55,1.02.96,1.4,1.05.97,2.25,1.56,3.55,2.22-1,.42-3.27-.37-4.34-.82l.38.62c.32.51.61,1.17,1.09,1.57,1.11.92,3.03,1.51,3.53,2.43.51.94.71,1.98.82,3.03.03.8-1.62-2.33-2.08-2.45.27,1.68.72,3.43.45,5.12,0,.03-.09.2-.1.18l-.07-.14c-.29-.54-.54-1.13-.94-1.62-.74-.9-1.72-1.54-2.75-1.95.47,1.19.94,1.6,1.39,2.9-2.04-.38-2.93-2.45-3.55-4.24-.79-2.3.31-2.77.03-3.58l-.5-1.41-.12-1.52c-.06-.75-1.98-2.75-1.83-2.23,0,.03.03.16.05.2l.99,1.71c.75,1.29.68,2.16.52,3.69-.14-.2-.29-.46-.34-.7-.4-1.83-1.54-3.24-3.14-4.14-.52-.29-.95-.57-1.6-.64.24,1.35,1.23,1.99,1.55,3.08-1.45-.96-2.37-2.59-2.51-4.23l.72-.29-1.18-1.23c.77-.31,1.34.19,2.36.26l-1.94-3.7c-.25-.48-.57-.89-1.12-1.07l-.62.51c-3.33,2.72-5.35,5.07-9.78,5.97-.49.1-.98.21-1.51.04,1.52-.8,2.81-1.75,4.14-2.78.64-.5,1.32-.88,1.88-1.61-3.59-.24-8.24,1.56-11.42,1.61l-3.72.06c-.16,0-2.88.13-2.55.54.86,1.08,3.03,2.29,4.44,2.97-.61.3-1.27.29-1.93.27-1.23-.04-2.33-.32-3.39-.94-1.45-.84-2.64-1.91-3.82-3.1-.35-.36-.97-.74-1.45-.55-.64.25-.79.98-1,1.61l.83.16c-.24.37-1.86,3.32-.8,3.08l1.18-.27c-1.58,2.61-2.93,3.75-4.73,6.21-.17-1.91.57-3.6,1.25-5.36-.73.57-1.08,1.39-1.52,2.15-1.45,2.48.31,4.11-1.68,6.73-.54.71-1.12,1.34-1.87,1.83-1.45.94-2.57,2.17-3.56,3.61-.19-1.28.54-2.1,1.06-3.2l-1.73,1.19c.32-1.03,1.02-1.84,1.82-2.63-1,.05-1.95.29-2.85-.25,1.99-.44,4.55-1.82,5.73-3.49l-2.6.87c-.5.17-1.02.22-1.45.09,1.19-.61,2.25-1.09,3.15-1.97,1.01-.99,1.65-2.23,2.1-3.57.42-1.26.93-2.44,1.59-3.58.63-1.08.47-2.05-.12-3.11l-.23.14c.07,1.02-.25,2.69-.75,3.35l-.13.17s-.04-.1-.05-.16l.06-1.07s-.01-.15-.02-.2l-.02-.17c0-.05-.02-.14-.02-.17l-.54-2.48c-.32-1.48,0-3.63.61-4.9.07.08.17.19.17.21,0,.64-.04,2.03.58,2.63l.15-1.44c.08-.74.44-1.09.83-1.85l.19.06.34.47c.02-.13,1.45-2.49,1.24-1.64l-.05.21c-.38,1.5,0,2.96.14,2.19.3-1.61,1.42-3.88,3.18-4.39-.27,1.08-1.33,3.51-.55,4.61.03-.03.06-.08.09-.12.04-.66.23-1.23.59-1.75l.12-.18s.07.06.09.09l.02.23c.06.72.34,1.3.94,1.8l.52-2.17c.33.73.45,2.33,1.52,1.95-.51-2.12-.14-3.3,1.41-4.76-.08,1.06-.47,1.95.03,2.87.05.07.04.08.05.05l.06-.2.07-.22c.06-.09.15-.22.15-.22l.23,1.05,1.14-1.76c.97-1.5,2.06-2.85,2.55-4.62-1.03.14-1.99.46-2.89.97-.1.05-.18.09-.18.03l.03-.25.09-.72-2.45,1.61s-.16.15-.16.12v-.13s.03-.11.07-.19l1.43-2.38s0-.18-.02-.18l-.14.02c-.75.11-1.43.19-2.26.25l.14-.41c.09-.28-.64-.49-1.23-.95-1.06-.83-1.71-2.63-1.88-2.43l-.15.18-4.02,4.78c.48.27,1.88-.57,1.62-.04l-1.37,1.03c-3.19,2.39-2.4,2.7-4.97,5.54-.64.71-1.02,1.63-1.58,2.4l-1.06,1.45c-.16.21-.24.55-.22.76.14.07.18.09.19.07l.11-.15.1-.14c.75-1.03-.15,2.18-.19,2.28l-.07.17c-.38.88-.6,1.42-1.38,1.92-.06.04-.1-.25-.1-.32l-.02-1.95c0-.69-.08-1.39-.55-1.87-.37.5-.58.87-1.05,1.32.08-1.85.31-3.58.01-5.45-.01-.09-.03-.43-.11-.4-.08.03-.3.17-.36.26l-.99,1.52c-.14-1.74.16-3.5.47-5.15.01-.06-.05-.28-.07-.34-.04-.09-.24.24-.26.29l-1.37,2.81-.14-.9-.83-4.13c-.23-1.13-.19-2.26-.11-3.4-.03-.16-.08-.35-.12-.16-.14.24-.24.41-.29.56l-.25.71c0-.43-.02-.77.03-1.08l.47-2.92s.03-.13.03-.15l.03-.3s-.17.04-.21.05l-.16.05c-.58.94-1.52,3.68-1.19,4.65l.21-.24s.07.11.06.17l-.14,1.15c-.08.65-.25,1.32-.21,1.98v.19c-.02-.25-.04-.49-.07-.73-.04-.34-.08-.68-.12-1.03-.09-.81.01-1.75.12-2.68.09-.86.33-1.47.57-2.12.26-.69.56-1.48.66-2.5l.15-1.52-1.32-.08c.1-.81.24-1.64.45-2.48l.07-.28c.57-2.29,1.1-4.65.92-6.08-.17-1.33-.58-2.66-1.2-3.94-.48-.98-1.64-1.42-2.2-1.64-.28-.11-.29-.11-.33-.46-.02-.21-.04-.43-.06-.64-.03-.33-.07-.65-.08-.96,0,0,0,0,.01,0l2.43-.33-1.43-1.99c-2.17-3.02-2.7-4.53-1.8-8.04.88-3.44.91-3.84.96-6.44,0-.44.02-.95.03-1.55.03-1.14.14-2.15.35-3.19l.89-4.42c.11-.55.2-1.09.28-1.61.14-.85.26-1.64.48-2.43.72-2.57,1.71-4.21,2.51-5.53.52-.86.97-1.6,1.25-2.42.11-.33.22-.66.33-.98.37-1.1.71-2.14,1.22-3.12,1.16-2.25,2.48-4.16,4.04-5.84,1.13-1.21,2.64-2.11,4.62-2.73,1.94-.61,2.52-1.16,3.39-2.09.22-.24.47-.51.8-.82,1.16-1.11,2.56-1.94,4.41-2.63,1.57-.58,2.92-1.49,4.25-2.86.97-1,1.9-1.69,3.11-2.55.83-.59,1.67-.84,2.65-1.13.77-.23,1.64-.48,2.57-.94.76-.37,1.51-.67,2.23-.92-.22.18-.44.37-.65.58-2.81,2.71-3.3,6.92-3.31,10.71-.78-1.66-1.23-3.36-1.32-5.13l-.1-1.9c-.57,1.74-.33,2.72-.51,4.5-.77-2.35-1.15-3.48-.75-6.13-1.16,1.55-1.19,3.39-1.37,5.17-.65-1.16-.97-2.23-1.3-3.4-.75,2.32.12,4.72,1.09,6.98l-1.4-1.31.28,2.28c-1.26-1.1-2.35-2.1-3.67-3.01l.54,3.39c-.99-.9-1.97-1.74-3.3-2.22.9,1.4,1.66,2.6,2.16,4.12l-1.45-1.18c-.69-.56-1.39-1.09-2.28-1.4.59.52,1.19.98,1.69,1.59l1.36,1.67c.91,1.12,1.93,2.06,3.26,2.71-.25-.92-.67-1.66-1.01-2.48l-.55-1.33c1.09.62,2.62,1.87,3.33,2.69.4.47-.72-3.07-.51-3.14,1.12,1.6,1.99,3.14,3.38,4.44.21-2.03.31-3.94.09-5.91-.05-.47-.08-.9,0-1.38.76,2.5,1.76,4,3.29,6.03.06-1.51-.21-2.52-.02-4.04.57,1.21.88,2.43,1.73,3.54-.25-2.58-.14-4.96.34-7.4.06-.32.18-.61.38-.8-.11,2.58.18,4.79.81,7.2.28-1.45.34-4.39,1.24-5.32.02,1.07.11,2.06.28,3.09l.34,2.05.49-1.45c.59-1.74,1.25-3.38,2.44-4.82l-.05,2.79.98-3.05c.95-2.95,2.91-6,5.67-7.55-1.57.25-2.86,1.07-4.06,2.05-1.61,1.32-2.71,3.02-3.72,4.86.11-2.19,1.01-4.06,2.09-5.92-2.48,1.84-3.85,3.4-5.32,6.19-.08-2.28.56-4.45,1.85-6.25,1.25-1.74,2.99-1.9,4.93-2.53,1.83.44,3.7.76,5.71.98,2.5.27,4.62,1.03,6.5,2.32l2.38,1.63c1.57,1.08,2.86,1.91,4.18,2.68,1.5.88,2.91,1.71,4.48,2.5,2.15,1.08,3.97,2.67,5.56,4.85l3.09,4.24c.37.51.76.96,1.13,1.4.17.2.35.41.52.61,1.92,2.34,4.39,6.01,5.19,10.26l1.09,5.73c.07.37.15.74.22,1.11.19.89.36,1.74.44,2.6.03.35.03.71.04,1.1,0,.71.02,1.44.18,2.23l1.04,4.89c.35,1.65.93,3.34,1.83,5.32.43.95,1.03,1.75,1.82,2.46.1.09.21.17.31.25-.33.42-.67.88-1.05,1.41l-.37.52.13.63c.06.3.12.56.17.78l-.91-.12.91,2.31.06.15,1.09,2.8c.42,1.06.9,1.97,1.45,2.7l-.28.14-.68.34-.11.75c-.19,1.25-.14,2.53.15,4.05l.72,3.67s0,.04-.01.07c-.03.21-.07.46-.04.75.18,1.63.24,3.18.18,4.76-.25-.97-.57-1.91-.98-2.82-.16-.36-.3-.63-.58-.87-.14,1.59-.34,3.11-.08,4.66.15.92.48,1.78.57,2.72.17,1.94.04,3.77-.17,5.79.84-1.08.83-2.37.96-3.68.45.29.15.71.55.94.03.15.07.3.1.44l.04.17c.42,1.83.35,3.74.27,5.6-.05,1.17.44,2.52.91,3.82.2.55.4,1.12.52,1.57l-1.11,2.61ZM52.95,113.99l-.67-.79c.94-.18,1.81-.16,2.76-.13-.28-1.17-.5-2.26-.41-3.43,1.21,1.55,2.39,2.82,3.81,4,.23.19.43.43.48.78l-1.77-1.04c1.16,2.54,1.77,4.64,2.4,7.46-1.09-.88-1.28-2.24-2.29-3.16.42,1.37.98,2.55,1.21,3.88.24,1.32.27,2.7-.25,4-.54-1.47-.77-2.89-1.64-4.13.18,2.27-.26,4.36-1.68,6.16.15-2.52.54-4.06-.57-6.45-.31-.66-.53-1.36-.99-1.92l-.97-1.19c-.27-.33-.36-.71-.49-1.16.45-.08,2.36.89,2.83,1.24-.2-1.44-.76-2.93-1.75-4.1Z"/>
        <path class="cls-2" d="M16.21,34.59c-.44.63-.91,1.22-1.19,1.95-.53,1.37-.93,2.72-1.28,4.15l-.88,3.55c-.54,2.17-.8,4.3-1.23,6.49l-.44,2.27c-.28,1.46-.6,2.85-.78,4.33l-.61,4.98c-.01.11-.06.29,0,.31.06.02.28.05.35.01,1.75-.74,1.33-.44,1.91-1.86.48-1.19,1.38-2.18,2.36-2.95.08-.07.24-.3.31-.38,1.31-.72,2.6-.4,3.93-.62,3.22-.53,4.17-1.45,7.15.8l-.3-1.15c1.32.51,1.64,1.5,2.8,2.26l.15-1.59c.79.74,1.48,1.5,1.91,2.58.36.88.99,1.89,2.05,1.99,3.03.28,6.01-.47,8.75-1.65l-.36-.95c-.23-.61.23-1.31.66-1.74.7-.71,1.32-1.31,2.05-1.98l-.27,1.71,1.42-1.31c.64-.58,1.37-1.06,2.15-1.43-.25.48-.43.78-.59,1.18.66-.34,1.07-.68,1.68-.9.85-.31,1.81-.14,2.73-.2.58-.04,1.18-.15,1.77-.1l5.43.47c.17.01.03-.11-.07-.15l-1.3-.74c.83-.15,1.68-.09,2.46.32l5.6,2.99c.09.05.21.15.23.16s-.05.06-.11.11l-8.16-.35c-2.3-.1-6.94.29-8.9,1.39l5.43-.54c3.06-.31,12.43.12,15.4.58l2.8.44c1.33.21,2.63.22,3.98.27.44.02,1.07-.13,1.27-.55.35-.73-1.71-4.06-1.97-4.4l-2.18-2.78-1.08-1.54c-.86-1.22-1.49-2.74-1.69-4.24-.14-1.08-.26-1.96-.7-3.07l1.75,1.25c-.57-1.37-.89-2.64-1.32-3.95l-.66-2.01,1.57,1.11c-.05-.3-.15-.53-.3-.78-.97-1.62-1.81-3.22-2.55-4.96-.84-1.97-3.21-3.7-4.93-4.88-.72-.5-1.41-.98-2.21-1.36-2.04-.96-4.09-1.7-6.24-2.47l.74-.68-1.44.4c-.4-.17-1.12-.45-1.34-.83-.54-.95-.68-1.91-1.09-3.02l-1.33,2.16c-.14.22-.27.4-.47.62l-.48-1.33-.49.9c-.69-.19-2.14-1.09-2.63-1.53-.39-.36-.7-.76-1.11-1.2l-.24,3.41c-.98-.71-1.83-1.36-2.68-2.28l-.21,1.66c-1.34-1.1-2.47-2.27-3.7-3.51-.56,1.01-.87,2.03-1.2,3.17-.37-.19-.69-.47-.92-.79l-.72-1.02v1.47c-1.32-.29-2.62-1.14-3.74-.4.3.85.56,1.58.72,2.46-1.1-.45-2.08-.93-3.25-1.01.55.61,1.01,1.03,1.4,1.71-3.53.64-6.27,1.25-8.94,3.86-1.78,1.73-3.22,3.68-4.64,5.71Z"/>
        <path class="cls-2" d="M78.63,67.08c-.19-.54-.3-.99-.68-1.5l-2.09.79c-.93.35-1.91.61-2.9.74-1.42.18-2.73.4-4.11.79-.25.07-.53.47-.67.71,1.23.56,2.37,1.05,3.52,1.87-1.04.27-3.77-1.28-4.06.15l-.51,2.49c-.64,3.14-1.69,6.41-4.72,7.87-3.22,1.56-5.96,1.88-9.53,2.13.37.65.81,1.12,1.25,1.64.93,1.08,1.81,2.14,2.89,3.09.52.46,1.09.83,1.64,1.27,1.18.93,2.35,1.77,3.64,2.57,1.45.9,2.77,1.88,3.74,3.29.23.34.27.69.33,1.08.17.98.71,1.83,1.34,2.58.39.2.87.31,1.21.55.95.64,1.67,1.5,2.39,2.36.25-1.37.09-2.62-.23-3.86-.15-.57-.29-1.07-.37-1.75.98.73,1.68,1.56,2.38,2.62.06-1.35-1.05-5.93-1.61-6.78l-1.36-2.05c1.18.45,2.12.99,3.21,1.57l-1.05-2.49c-.23-.54-.48-1.01-.51-1.64.89.73,1.49,1.41,2.23,2.23-.06-1.37-.52-2.04-.08-3.64.34-1.24.87-2.42,1.51-3.52.78-1.32,1.28-1.09,2.27-2.14l.1,1.03c.06.64.31,1.14.96,1.47.36-.8.64-1.66.68-2.57l.17-4.37-.11-4.55c-.03-1.42-.4-2.7-.87-4.01Z"/>
        <path class="cls-2" d="M28.99,77.11c.85-2.54,1.12-3.96,1.19-6.76-.22.14-.37.26-.5.41-.42.5-.87.86-1.37,1.27-1.14.93-2.21,1.93-3.6,2.48-2.43.96-4.98.9-7.41-.08l1.61-.15c1.36-.13,2.7-.21,3.99-.65,1.42-.49,2.68-1.17,3.68-2.42l-1.87-.23c.03-.56,1.66-1.28,2.14-1.88-2.08-.37-3.08.19-5.49.15-1.42-.02-1.52-1.47-2.02-2.35-.55.16-1.4,1.17-1.12,1.61.82.44,1.56.82,2.34,1.42-.94.1-1.82.04-2.75-.07-1.11-.13-2.1.43-2.46,1.52-.22.66-.11,1.28.4,1.94-1.3.15-2.31.58-3.22,1.49-.22-.94.69-1.31.81-1.77-.99.16-3,.67-3.22,1.59l-.6,2.5c-.03.14-.24.34-.35.37-.95-1.94-1.71-5.91-1.53-7.98.1-1.13,1.45-2.68,2.51-2.57.23.75.32,1.52.31,2.29-.01,1.34,1.28,1.48,2.37,1.69,1.17-.74,1.29-2.08,2.27-3.58,1.11-1.69,2.97-2.39,4.81-3,1.86-.62,3.82-.76,5.78-.48.44.06.81.1,1.27.1-.9-.55-4-.85-5.11-.84-3.41.04-6.66.69-9.88,1.78-1.3.44-2.47,1.09-3.53,1.93-.91.72-1.42,1.73-1.51,2.91-.14,1.82.24,3.54.63,5.32.51,2.34,1.6,4.37,2.98,6.32.88,1.24,2.03,2.24,3.63,2.52,2.06.35,4.19.24,6.27-.08,1.02-.15,1.94-.49,2.91-.83,2.73-.96,4.71-3.16,5.63-5.89Z"/>
        <path class="cls-2" d="M61.23,79.38c1.4-.62,2.3-1.56,2.84-3.01.67-1.79,1.06-3.65,1.23-5.6.17-1.97.28-3.9-.11-5.83-.31-1.53-1.29-2.75-2.69-3.44-2.11-1.04-5.7-1.57-8.08-1.53-2.42.04-4.78.29-7.13.77-.87.18-1.49.74-1.74,1.59.32-.03.68-.09,1-.2,2.29-.81,3.18-1.07,5.69-.77,2.09.25,4.05.67,6.07,1.25.19.06.64-.06.59-.21-.07-.21-.21-.45-.15-.57.26-.57,3.21-.46,4.85,1.44.72.84,1.01,1.82,1.12,2.9.19,2,.07,4.05-.35,5.98l-3.15-.93,1.43-.86c.05-.03.15-.21.11-.26-.03-.03-.13-.13-.19-.16l-1.45-.81,1.28-.79c-1.29-.62-3.45.56-5.01.5l2.06-1.61-1.2-.61c-.42-.22-.7-.12-1.12.03-1.4.49-2.87.43-4.35.43-.35,0-.89,0-1.07-.33-.36-.67-.57-1.23-.87-1.98-.69.15-1.82.66-2.12,1.33l1.29.97-2.9.45c-.66.1-1.32.32-1.85.71.62.06,1.11.12,1.6.4l2.54,1.5c3.04,1.8,6.67,1.88,10.15.86-2.96,2.54-7.47,2.24-10.68.56l-3.46-1.8c-2.13-1.11-3.55-2.88-4.39-5.11-.53,1.38-.21,2.63.36,3.85,1.59,3.4,1.62,5.4,2.86,8.09.46,1,1.18,1.73,2.16,2.25,2.53,1.36,5.35,2.03,8.21,1.96,2.33-.06,4.51-.49,6.61-1.42Z"/>
        <path class="cls-2" d="M46.5,81.32l-2.29-1.4c-.61-.37-1.27-.83-1.63-1.47-.74-1.32-1.45-2.58-2.27-3.86-.67-1.05-1.28-2.08-1.72-3.25l-1.04-2.79c-.44-1.19-2.32-1.06-3.14-.59-.35.2-.82.68-.92,1.09l-.7,2.97c-.38,1.6-2.3,5.35-3.09,8.01-.08.28-.35.81-.55,1.02l-1.98,2.03c-1.13,1.16-.85,3.32,0,3.86,1.49.96,2.44-1.54,3.9-1.73.42.09.93.38,1.32.61,2.42,1.41,3.61.96,5.67-.43,3.76-2.55,7.49,1.95,9.39.21,1-.92.92-3.14-.97-4.29Z"/>
        <path class="cls-2" d="M20.47,85.92c-1.93.14-3.79.19-5.72-.06-2.98-.39-4.49-1.73-6.37-3.96-.17,1.69-.11,3.24-.04,4.86l.2,4.33c.04.91.07,1.77.24,2.69.62-.73,1.2-1.44,2.08-2.03-.24,1.55-.68,3.98-.21,5.23l1.16-.71c-.04,1.77.17,3.32.56,4.98.05.22.19.48.32.7l.96-.83c.29-.25.66-.57.8-.93.54-1.34.93-2.66,1.36-4.05.21-.69.49-1.44.97-1.97,2.32-2.53,3.98-3.61,6.16-6.65.36-.49.61-.94.66-1.6-1.08-.13-2.06-.08-3.12,0Z"/>
        <path class="cls-2" d="M64.54,19.63c.16-.36.36-.49.63-.66,1.38-.88,2.91-1.2,4.56-1.39-2.36-.82-5.46-.85-7.77.15,1.69-2.13,4.3-3.21,6.88-3.87-1.89-.21-3.64.4-5.26,1.24-2.01,1.05-3.72,2.7-5.11,4.55.71-.21,1.24-.47,2.05-.5l-1.01.71c-.55.39-1.04.84-1.49,1.38l1.34-.36c1.52-.41,3.08-.63,4.62-.05-.23.18-.47.27-.71.39l-2.09.94c-.99.45-1.92.98-2.82,1.62l2.65-.67c3.36-.86,8.61-1.41,11.88-.47-1.21.3-2.1.07-3.21.63,2.36.34,4.41,1.28,6.13,2.93-1.99-.58-4.05-1.06-6.15-.91l4.98,1.65c2.8.93,5.33,2.38,7.26,4.65.54.64.94,1.28,1.55,1.92-1.07-3.11-3.49-7.29-6.14-9.05l-1.99-1.32c.16-.06.41-.12.54-.1,2,.31,3.72,1.06,5.47,2.07-.47-.55-.99-.92-1.57-1.36-2.53-1.93-5.49-3.23-8.7-3.53l-6.52-.62Z"/>
        <path class="cls-2" d="M93.92,75.75c.07-.47,0-.95,0-1.36-.01-1.02-.2-2.03-.79-2.87-.32-.46-.97-.82-1.49-.53-1.31.74-.65,3.65-.43,5.01.35,2.09.36,4.22-.68,6.19.05-2.81-.18-5.41-.74-8.09-.23-1.1-.35-2.16-.87-3.13-.33-.62-1.17-1.09-1.74-.52-.21.22-.14.83-.09,1.15.2,1.46.24,2.84.07,4.3-.05.42.19.74.34,1.13.44,1.2.92,2.51.91,3.83-.03,2.22.08,4.32.45,6.51.21,1.2.34,2.35,1.17,3.38.23-.66.36-1.25.5-1.88.6-2.75,1.41-5.36,2.21-8.07.5-1.69.91-3.28,1.19-5.06Z"/>
        <path class="cls-2" d="M49.15,15.87c.47-1.39,1.97-3.95,3.21-4.78-.39,1.59-.58,3.13-.54,4.69l.76-1.02c.09,1.32-.09,2.44-.18,3.7,1.45-2.49,2.16-4.29,4.34-6.33-.2.89-.63,1.66-.96,2.49l-.96,2.42c2.78-2.54,3.99-4.63,7.29-6.58,1.07-.63,2.16-.99,3.37-1.18-2.76-.37-5.04.54-7.54,1.68.28-1.48,1.82-2.89,3.23-3.58-3.31-.17-5.27,1.8-7.33,4.08.22-1.36.69-2.49,1.19-3.79-1.98.87-3.64,2.23-4.73,4.03-.74,1.22-1.53,3.19-1.37,4.68.1-.13.14-.3.21-.52Z"/>
        <path class="cls-2" d="M9.08,48.9l-1.03,1.24c-.46.56-.99,1.02-1.52,1.51.71-1.47,1.4-2.75,2.19-4.08.86-1.45,1.85-2.76,2.57-4.27-.82.42-1.21,1.07-1.96,1.35.58-1.44,1.36-2.51,1.82-3.87-.72.66-1.27,1.3-1.9,1.96-.21.22-.17.64-.55.71l.87-1.76c.54-1.09,1.18-2.08,1.61-3.3-2.05,1.68-3.79,4.44-4.95,6.93l1.77-1.37-1.41,3c-.62,1.32-1.24,2.55-1.73,3.9.85-.62,1.36-1.56,2.14-2.2-1.6,3.76-2.48,3.88-3.11,8.19-.2,1.38-.54,2.67-.3,4.14.42-2.38,1.13-4.48,2.59-6.47,1.5-2.04,2.75-4.07,3.77-6.41-.41.16-.61.49-.87.81Z"/>
        <path class="cls-2" d="M20.89,22.94l1.11.02c-.18-.64-2.87-1.15-3.62-1.08,2.21-1.25,4.5-.9,6.99-.07-.24-.47-.49-.83-.79-1.15l-1.96-2.02c.52.1.91.24,1.34.43,1.24.54,2.42,1.03,3.78,1.51-.67-1.03-1.48-1.81-2.41-2.51-2.71-2.02-7.14-2.01-10.03-.15,2.18-.2,5.18.3,6.75,2.18-.67.02-1.28-.13-1.87-.06-2.71.31-5.19,2.06-7.19,3.78l-.48.42c.38-.07.68-.15,1.03-.18,2.39-.21,4.87-1.17,7.35-1.12Z"/>
        <path class="cls-2" d="M80.02,36c.72.5,1.37.99,1.92,1.58l2.2,2.37c-1.04-3.45-4.03-7.03-7.01-8.82-.68-.41-1.45-.61-2.15-.86,1.02.96,2.1,1.7,2.87,2.86-1.08-.57-1.98-1.11-3.08-1.42.57.63,1.07,1.03,1.48,1.77l-2.46-1c-.15-.06-.45-.05-.6.01,1.01.7,1.93,1.22,2.8,1.95,1.96,1.65,3.32,3.72,4.18,6.12.83,2.32,2.14,5.53,4.13,7.12-1-1.77-1.59-3.49-2.05-5.38-.53-2.19-1.29-4.18-2.24-6.29Z"/>
        <path class="cls-2" d="M30.43,100.96c-.14.01-.5.23-.44.36l.21.45c.54,1.16,1.26.47,1.97.83.39.2.8.26,1.15.03.36-.23.62-.05.97.12,1.05.5,2.15.26,3.2.18l3.9-.3c.69-.05,1.29-.59,1.94-.72.96-.18,1.96,0,2.88-.45.23-.12.6-.24.88-.17.84.21,1.68-.28,1.99-.97.03-.06-.07-.26-.01-.29.04-.02.1-.1.17-.25-1.4-.07-2.79-.34-4.17-.12l-6.56,1.06c-2.06.33-5.53.03-8.06.24Z"/>
        <path class="cls-2" d="M11.36,32.3l-2.38,4.41c.47-.38.72-.83,1.04-1.29,2.38-3.46,4.95-6.07,8.14-8.1-1.45.09-2.42.89-3.73,1.24.92-1.12,2.03-2,3.21-2.69l1.43-.84c-.86-.46-1.76-.44-2.64-.13-1.67.58-4.6,2.16-5.51,3.64.8-.26,1.41-.49,2.2-.62-1.47,1.63-2.92,3.07-4.14,4.82-1.36,1.94-2.39,3.96-3.31,6.12-.22.51-.45.94-.52,1.51l1.81-3c1.15-1.91,2.51-3.63,4.41-5.06Z"/>
        <path class="cls-2" d="M77.3,40.26c-.39-.62-.69-1.26-1.42-1.63l1.4,3.32c.34.81.55,1.61.77,2.54-.67-.87-1.12-1.71-1.7-2.56-.66-.96-1.27-1.91-2.15-2.73,1.53,4.64,3.85,9.2,7.95,12.01.49.34.98.58,1.57.73-1.86-1.77-3.17-3.78-3.99-6.18-.66-1.92-1.34-3.79-2.43-5.51Z"/>
        <path class="cls-2" d="M59,15.97c1.46-.9,2.74-1.73,4.21-2.39l1.98-.67c2.65-.5,5.25-.41,7.81.29.3.08.6.11.93.12l-1.49-.73c-2.77-1.35-6.4-1.48-9.27-.38-1.77.68-3.26,2.05-4.18,3.76Z"/>
        <path class="cls-2" d="M94.46,59.19l-3.22-1.29c-1.4-.56-2.73-1.09-4.21-1.61.62.75,2.16,1.18,2.59,1.81-1.6.15-2.96-.46-4.53-.87,2.72,1.97,6.13,2.73,9.37,1.95Z"/>
        <path class="cls-2" d="M36.89,94.85c-.06.66.03,1.4-.56,1.76l-1.89,1.16,1.63.56c1.53.53,3.03-.37,4.86-.6l-2.15-1.04c-.83-.4-1.5-.92-1.89-1.85Z"/>
        <path class="cls-2" d="M12.91,61.96l4.64-.54c2.05-.24,4.02-.36,6.15-.42-3.34-1.43-7.72-1-10.79.95Z"/>
        <path class="cls-2" d="M55.2,63.49l2.46.59c-.35-.54-.82-.72-1.32-.96-1.01-.47-2.04-.91-3.17-.95-1.61-.06-3.24.89-4.39,2.12l2.07-.62c1.37-.41,2.88-.54,4.34-.19Z"/>
        <path class="cls-2" d="M91.53,97.97c1.16-.83,1.67-2,2.13-3.2.58-1.57.96-3.17.7-4.83-.76,3.12-1.83,5.08-2.84,8.03Z"/>
        <path class="cls-2" d="M90.73,64.51c.15.38.34.63.55.94.85,1.24,1.87,2.31,3.16,2.98-.55-1.16-1.36-1.9-2.14-2.74-.47-.5-.91-.96-1.57-1.18Z"/>
        <path class="cls-2" d="M26.14,66.78l-.32,1.9,1.87-.68-.67-.7c-.24-.25-.53-.42-.88-.52Z"/>
        <path class="cls-2" d="M22.47,66.05c-.08.08-.09.4,0,.47.09.07.33.11.5.12.21.01.54-.23.38-.48-.15-.24-.73-.28-.89-.11Z"/>
      </g>
      <g>
        <path class="cls-2" d="M109.19,26.25h12.37c4.65,0,14.46.47,14.46,7.85,0,2.6-1.24,4.99-4.65,6.19v.09c4.48,1.66,5.5,4.56,5.5,7.34,0,8.15-8.7,9.43-14.72,9.43h-12.97v-30.89ZM122.37,38.79c1.62,0,2.39-.85,2.39-1.92s-.81-1.92-2.39-1.92h-.47v3.84h.47ZM122.46,48.86c2.01,0,2.94-1.07,2.94-2.39s-.98-2.39-2.94-2.39h-.55v4.78h.55Z"/>
        <path class="cls-2" d="M148.27,26.25h12.16l11.77,30.89h-13.74l-1.07-4.05h-7.08l-1.2,4.05h-12.63l11.78-30.89ZM155.35,45.32l-1.37-6.27h-.09l-1.37,6.27h2.82Z"/>
        <path class="cls-2" d="M174.33,26.25h12.37c4.65,0,14.46.47,14.46,7.85,0,2.6-1.24,4.99-4.65,6.19v.09c4.48,1.66,5.5,4.56,5.5,7.34,0,8.15-8.7,9.43-14.72,9.43h-12.97v-30.89ZM187.51,38.79c1.62,0,2.39-.85,2.39-1.92s-.81-1.92-2.39-1.92h-.47v3.84h.47ZM187.6,48.86c2,0,2.94-1.07,2.94-2.39s-.98-2.39-2.94-2.39h-.55v4.78h.55Z"/>
        <path class="cls-2" d="M221.08,25.78c9.68,0,17.24,6.95,17.24,15.91s-7.55,15.91-17.24,15.91-17.24-6.95-17.24-15.91,7.55-15.91,17.24-15.91ZM221.08,46.68c2.64,0,4.78-2.13,4.78-4.78s-2.13-4.78-4.78-4.78-4.78,2.13-4.78,4.78,2.13,4.78,4.78,4.78Z"/>
        <path class="cls-2" d="M242.62,24.63h9.51l-4.99,13.06h-7.29l2.77-13.06Z"/>
        <path class="cls-2" d="M253.54,44.59c4.14,2.69,8.32,3.67,10.15,3.67,1.28,0,1.58-.51,1.58-1.02,0-.6-.38-.85-.94-.98-1.49-.38-5.8-.85-8.96-3.63-1.62-1.45-2.73-3.46-2.73-6.44,0-6.19,4.78-10.41,12.59-10.41,3.75,0,8.19.98,11.01,2.43v10.11c-4.01-2.01-7.77-2.73-9.34-2.73-1.24,0-1.58.47-1.58.94,0,.64.47.9.98,1.07,1.28.38,5.55.9,8.58,3.29,2.09,1.71,3.11,3.88,3.11,6.66,0,5.93-4.78,10.07-12.88,10.07-3.88,0-8.53-.94-11.56-2.52v-10.5Z"/>
        <path class="cls-2" d="M109.19,60.78h12.71v9.56h6.4v-9.56h12.71v30.89h-12.71v-11.26h-6.4v11.26h-12.71v-30.89Z"/>
        <path class="cls-2" d="M161.32,60.31c9.68,0,17.24,6.95,17.24,15.91s-7.55,15.91-17.24,15.91-17.24-6.95-17.24-15.91,7.55-15.91,17.24-15.91ZM161.32,81.22c2.64,0,4.78-2.13,4.78-4.78s-2.13-4.78-4.78-4.78-4.78,2.13-4.78,4.78,2.13,4.78,4.78,4.78Z"/>
        <path class="cls-2" d="M181.62,60.78h11.86l6.14,7.76,5.93-7.76h11.52v30.89h-12.71v-15.06h-.08l-5.5,7.25-5.63-7.25h-.08v15.06h-11.43v-30.89Z"/>
        <path class="cls-2" d="M220.82,60.78h22.23v10.32h-9.51v1.66h7.68v7.34h-7.68v1.75h10.11v9.81h-22.83v-30.89Z"/>
        <path class="cls-2" d="M109.19,95.32h12.71v12.88l.09.04,5.25-12.93h13.91l-7.29,14.33,7.89,16.55h-14.29l-5.46-14.55-.09.04v14.51h-12.71v-30.89Z"/>
        <path class="cls-2" d="M144.04,95.32h12.71v30.89h-12.71v-30.89Z"/>
        <path class="cls-2" d="M168.7,105.81h-8.62v-10.5h29.95v10.5h-8.62v20.39h-12.71v-20.39Z"/>
        <path class="cls-2" d="M209.82,94.85c3.5,0,7.12.77,9.09,1.79v11.39c-2.13-1.07-4.82-1.96-7.68-1.96-4.35,0-6.7,2.09-6.7,4.95s2.35,4.91,6.7,4.91c2.86,0,5.72-.85,7.85-2.05v10.88c-2,1.07-5.72,1.92-9.39,1.92-10.32,0-17.88-6.74-17.88-15.91s7.51-15.91,18-15.91Z"/>
        <path class="cls-2" d="M222.57,95.32h12.71v9.56h6.4v-9.56h12.71v30.89h-12.71v-11.26h-6.4v11.26h-12.71v-30.89Z"/>
        <path class="cls-2" d="M258.15,95.32h22.23v10.32h-9.51v1.66h7.68v7.34h-7.68v1.75h10.11v9.81h-22.83v-30.89Z"/>
        <path class="cls-2" d="M284.12,95.32h11.56l9.09,13.18.09-.04v-13.14h11.43v30.89h-11.56l-9.09-13.18-.08.04v13.14h-11.43v-30.89Z"/>
      </g>
      <text class="cls-1" transform="translate(107.31 144.59)"><tspan x="0" y="0">DELICACIES OF BENGAL</tspan></text>
    </g>
  </g>
</svg>